<?xml version="1.0" standalone="no"?>
<!DOCTYPE svg PUBLIC "-//W3C//DTD SVG 20010904//EN"
 "http://www.w3.org/TR/2001/REC-SVG-20010904/DTD/svg10.dtd">
<svg version="1.0" xmlns="http://www.w3.org/2000/svg"
 width="200.000000pt" height="200.000000pt" viewBox="0 0 200.000000 200.000000"
 preserveAspectRatio="xMidYMid meet">

<g transform="translate(0.000000,200.000000) scale(0.100000,-0.100000)"
fill="#000000" stroke="none">
<path d="M935 1133 c-99 -159 -96 -143 -21 -143 55 0 64 3 69 20 3 11 10 20
17 20 7 0 14 -9 17 -20 5 -17 14 -20 69 -20 65 0 65 0 52 23 -33 61 -133 217
-138 217 -3 0 -33 -44 -65 -97z m82 5 c18 -36 26 -62 24 -72 -1 -4 3 -14 9
-21 8 -10 -2 -12 -44 -11 -49 0 -54 2 -51 21 5 37 34 105 45 105 4 0 11 -10
17 -22z"/>
<path d="M735 870 l0 -71 40 3 40 3 3 59 c3 65 -4 76 -53 76 l-30 0 0 -70z
m65 -5 c0 -48 -2 -55 -20 -55 -18 0 -20 7 -20 55 0 48 2 55 20 55 18 0 20 -7
20 -55z"/>
<path d="M1139 940 c0 -3 -1 -35 -2 -73 -2 -54 1 -67 13 -67 12 0 14 12 12 62
-2 35 -8 67 -13 73 -5 5 -9 7 -10 5z"/>
<path d="M1246 916 c5 -21 2 -25 -23 -28 -25 -3 -28 -7 -31 -45 l-3 -42 38 2
38 1 -3 68 c-2 37 -8 68 -13 68 -5 0 -7 -11 -3 -24z m2 -61 c1 -12 -6 -25 -18
-33 -19 -11 -20 -10 -20 24 0 28 3 35 18 32 9 -2 18 -12 20 -23z"/>
<path d="M840 846 c0 -46 0 -46 36 -46 l35 0 -3 43 c-3 39 -5 42 -35 45 -33 3
-33 3 -33 -42z m50 -1 c0 -24 -5 -35 -15 -35 -10 0 -15 11 -15 35 0 24 5 35
15 35 10 0 15 -11 15 -35z"/>
<path d="M935 843 c0 -25 5 -43 11 -43 7 0 9 11 6 26 -3 16 1 30 9 35 25 16
31 10 27 -26 -3 -27 0 -35 12 -35 13 0 15 8 11 42 -6 40 -8 42 -41 43 -35 2
-35 1 -35 -42z"/>
<path d="M1040 881 c0 -5 9 -7 20 -4 28 7 25 -11 -5 -31 -38 -25 -32 -46 13
-46 l37 0 -3 45 c-4 42 -6 45 -33 45 -16 0 -29 -4 -29 -9z m40 -56 c0 -8 -7
-15 -15 -15 -16 0 -20 12 -8 23 11 12 23 8 23 -8z"/>
</g>
</svg>
